# xmcd CD database file
#
# Track frame offsets:
#	150
#	13997
#	33722
#	49411
#	68108
#	85950
#	106772
#	127712
#	147252
#	166362
#	182540
#	201007
#
# Disc length: 2830 seconds
#
# Revision: 1
# Processed by: cddbd v1.5.2PL0 Copyright (c) Steve Scherf et al.
# Submitted via: CDex 1.70beta2
#
DISCID=a20b0c0c
DTITLE=Dizzy Birds - Because We Can
DYEAR=2017
DGENRE=Jazz
TTITLE0=St. Louis Blues
TTITLE1=Wild Man Blues
TTITLE2=Jolly Rovin' Tar
TTITLE3=Cakewalking Babies from Home
TTITLE4=Jungle Fever
TTITLE5=I Hate Myself for Being So Mean to You
TTITLE6=Marie
TTITLE7=Sweet Lotus Blossom
TTITLE8=The Banshee
TTITLE9=Out with the Wrong Woman
TTITLE10=Tight Like This
TTITLE11=I Get the Blues When It Rains
EXTD=YEAR: 2017
EXTT0=
EXTT1=
EXTT2=
EXTT3=
EXTT4=
EXTT5=
EXTT6=
EXTT7=
EXTT8=
EXTT9=
EXTT10=
EXTT11=
PLAYORDER=
